<?xml version="1.0" encoding="UTF-8" standalone="no"?>
<svg
   inkscape:export-ydpi="120"
   inkscape:export-xdpi="120"
   inkscape:export-filename="Telecom Craft Logo Square 1000x1000px.png"
   sodipodi:docname="Telecom Craft Logo Square.svg"
   inkscape:version="1.2.2 (732a01da63, 2022-12-09)"
   id="svg1820"
   version="1.1"
   viewBox="0 0 800 800"
   height="800"
   width="800"
   xmlns:inkscape="http://www.inkscape.org/namespaces/inkscape"
   xmlns:sodipodi="http://sodipodi.sourceforge.net/DTD/sodipodi-0.dtd"
   xmlns="http://www.w3.org/2000/svg"
   xmlns:svg="http://www.w3.org/2000/svg"
   xmlns:rdf="http://www.w3.org/1999/02/22-rdf-syntax-ns#"
   xmlns:cc="http://creativecommons.org/ns#"
   xmlns:dc="http://purl.org/dc/elements/1.1/">
  <defs
     id="defs1814">
    <linearGradient
       y2="100.4837"
       x2="347.78201"
       y1="247.7832"
       x1="350.02249"
       gradientUnits="userSpaceOnUse"
       id="SVGID_1_"
       gradientTransform="matrix(0.05496058,0,0,0.05496058,39.038868,96.642651)">
      <stop
         id="stop937"
         style="stop-color:#589632"
         offset="0" />
      <stop
         id="stop939"
         style="stop-color:#93B023"
         offset="1" />
    </linearGradient>
    <linearGradient
       id="linearGradient902"
       inkscape:swatch="solid">
      <stop
         style="stop-color:#000000;stop-opacity:1;"
         offset="0"
         id="stop900" />
    </linearGradient>
    <linearGradient
       id="linearGradient2551"
       inkscape:swatch="gradient">
      <stop
         id="stop2547"
         offset="0"
         style="stop-color:#808080;stop-opacity:1;" />
      <stop
         id="stop2549"
         offset="1"
         style="stop-color:#808080;stop-opacity:0;" />
    </linearGradient>
    <linearGradient
       gradientTransform="matrix(0.05496058,0,0,0.05496058,39.038868,96.642651)"
       id="SVGID_1_-7"
       gradientUnits="userSpaceOnUse"
       x1="350.02249"
       y1="247.7832"
       x2="347.78201"
       y2="100.4837">
      <stop
         offset="0"
         style="stop-color:#589632"
         id="stop6" />
      <stop
         offset="1"
         style="stop-color:#93B023"
         id="stop8" />
    </linearGradient>
    <linearGradient
       gradientTransform="matrix(0.05496058,0,0,0.05496058,39.038868,96.642651)"
       id="SVGID_2_"
       gradientUnits="userSpaceOnUse"
       x1="459.22171"
       y1="246.1226"
       x2="456.98129"
       y2="98.822403">
      <stop
         offset="0"
         style="stop-color:#589632"
         id="stop13" />
      <stop
         offset="1"
         style="stop-color:#93B023"
         id="stop15" />
    </linearGradient>
    <linearGradient
       gradientTransform="matrix(0.05496058,0,0,0.05496058,39.038868,96.642651)"
       id="SVGID_3_"
       gradientUnits="userSpaceOnUse"
       x1="553.50677"
       y1="244.6875"
       x2="551.26642"
       y2="97.388199">
      <stop
         offset="0"
         style="stop-color:#589632"
         id="stop20" />
      <stop
         offset="1"
         style="stop-color:#93B023"
         id="stop22" />
    </linearGradient>
    <linearGradient
       id="SVGID_4_"
       gradientUnits="userSpaceOnUse"
       x1="234.4702"
       y1="250.03419"
       x2="232.211"
       y2="101.4977">
      <stop
         offset="0"
         style="stop-color:#589632"
         id="stop27" />
      <stop
         offset="1"
         style="stop-color:#93B023"
         id="stop29" />
    </linearGradient>
    <linearGradient
       gradientTransform="matrix(0.05496058,0,0,0.05496058,39.038868,96.642651)"
       id="SVGID_5_"
       gradientUnits="userSpaceOnUse"
       x1="188.7529"
       y1="250.2354"
       x2="186.5125"
       y2="102.9362">
      <stop
         offset="0"
         style="stop-color:#589632"
         id="stop36" />
      <stop
         offset="1"
         style="stop-color:#93B023"
         id="stop38" />
    </linearGradient>
  </defs>
  <sodipodi:namedview
     inkscape:showpageshadow="true"
     gridtolerance="10"
     inkscape:snap-page="true"
     scale-x="1"
     inkscape:snap-global="true"
     guidetolerance="20"
     objecttolerance="20"
     inkscape:guide-bbox="true"
     showguides="true"
     inkscape:window-maximized="1"
     inkscape:window-y="-8"
     inkscape:window-x="-8"
     inkscape:window-height="1017"
     inkscape:window-width="1920"
     width="2560px"
     units="px"
     showgrid="false"
     inkscape:document-rotation="0"
     inkscape:current-layer="layer5"
     inkscape:document-units="px"
     inkscape:cy="356.96146"
     inkscape:cx="-84.140915"
     inkscape:zoom="0.58829881"
     inkscape:pageshadow="2"
     inkscape:pageopacity="0"
     borderopacity="1.0"
     bordercolor="#666666"
     pagecolor="#ffffff"
     id="base"
     inkscape:pagecheckerboard="true"
     inkscape:deskcolor="#d1d1d1">
    <sodipodi:guide
       id="guide2568"
       orientation="0,-1"
       position="0,800"
       inkscape:locked="false" />
    <sodipodi:guide
       id="guide2570"
       orientation="0,-1"
       position="0,0"
       inkscape:locked="false" />
    <sodipodi:guide
       id="guide2572"
       orientation="1,0"
       position="0,800"
       inkscape:locked="false" />
    <sodipodi:guide
       id="guide2574"
       orientation="1,0"
       position="800,0"
       inkscape:locked="false" />
  </sodipodi:namedview>
  <metadata
     id="metadata1817">
    <rdf:RDF>
      <cc:Work
         rdf:about="">
        <dc:format>image/svg+xml</dc:format>
        <dc:type
           rdf:resource="http://purl.org/dc/dcmitype/StillImage" />
      </cc:Work>
    </rdf:RDF>
  </metadata>
  <g
     style="display:inline"
     inkscape:label="Background"
     id="layer5"
     inkscape:groupmode="layer">
    <rect
       y="0"
       x="0"
       height="800"
       width="800"
       id="rect903"
       style="opacity:0.997;fill:#ff8c00;fill-opacity:1;stroke:none" />
  </g>
  <g
     inkscape:groupmode="layer"
     id="g13027"
     inkscape:label="Text Paths"
     style="display:inline">
    <g
       aria-label="The TELECOM CRAFT"
       id="text13021"
       style="font-weight:600;font-size:152.091px;line-height:0;font-family:Trueno;-inkscape-font-specification:'Trueno, Semi-Bold';text-align:center;letter-spacing:-0.03px;text-anchor:middle;opacity:0.997;stroke-width:3.80229;stroke:none">
      <path
         d="m 337.20261,260.23445 h 19.45599 l -7.68,53.16264 h 6.82667 l 7.67999,-53.16264 h 19.54133 l 0.93866,-6.57066 h -45.82398 z"
         style="font-style:italic;font-weight:300;font-size:85.3333px;line-height:1.1;-inkscape-font-specification:'Trueno Light Italic';letter-spacing:0px;stroke:none"
         id="path13029" />
      <path
         d="m 379.78392,313.39709 h 6.656 l 3.15733,-22.10132 c 1.36533,-9.64266 8.02133,-16.38399 17.57866,-16.46933 7.936,0 12.032,4.69334 10.92266,12.62933 l -3.75466,25.94132 h 6.656 l 4.01066,-27.73332 c 1.536,-10.83733 -3.84,-17.49332 -14.59199,-17.49332 -8.27733,0.0853 -14.848,3.328 -18.944,10.32533 l 4.096,-28.41599 h -6.65599 z"
         style="font-style:italic;font-weight:300;font-size:85.3333px;line-height:1.1;-inkscape-font-specification:'Trueno Light Italic';letter-spacing:0px;stroke:none"
         id="path13031" />
      <path
         d="m 434.56796,290.95444 c -1.96267,13.39733 5.88799,22.69865 19.11466,22.69865 7.50933,0 14.16532,-2.73066 19.11465,-7.50933 l -3.07199,-3.92533 c -4.01067,3.66933 -9.216,5.632 -14.76267,5.632 -8.70399,0 -14.25066,-5.54666 -14.16532,-14.33599 h 36.69332 c 2.90133,-15.27466 -2.90134,-25.34399 -17.408,-25.25866 -13.05599,0 -23.55199,9.30133 -25.51465,22.69866 z m 6.99733,-2.90133 c 2.21866,-8.53333 9.21599,-14.08 17.74932,-14.08 8.78933,0 13.824,5.46133 12.97066,14.08 z"
         style="font-style:italic;font-weight:300;font-size:85.3333px;line-height:1.1;-inkscape-font-specification:'Trueno Light Italic';letter-spacing:0px;stroke:none"
         id="path13033" />
      <path
         d="m 100.32429,373.15002 h 24.9014 v 65.62684 h 25.63741 v -65.62684 h 25.02407 v -20.36273 h -75.56288 z"
         style="font-weight:800;font-size:122.667px;line-height:1.1;-inkscape-font-specification:'Trueno, Ultra-Bold';letter-spacing:0px;stroke:none"
         id="path13035" />
      <path
         d="m 183.86055,438.77686 h 71.51486 V 419.15014 H 209.37529 V 405.5341 h 40.60277 v -19.62672 h -40.60277 v -13.49337 h 44.77345 v -19.62672 h -70.28819 z"
         style="font-weight:800;font-size:122.667px;line-height:1.1;-inkscape-font-specification:'Trueno, Ultra-Bold';letter-spacing:0px;stroke:none"
         id="path13037" />
      <path
         d="m 267.64217,438.77686 h 61.57884 V 417.4328 h -36.0641 v -64.64551 h -25.51474 z"
         style="font-weight:800;font-size:122.667px;line-height:1.1;-inkscape-font-specification:'Trueno, Ultra-Bold';letter-spacing:0px;stroke:none"
         id="path13039" />
      <path
         d="m 338.05297,438.77686 h 71.51486 V 419.15014 H 363.56771 V 405.5341 h 40.60277 v -19.62672 h -40.60277 v -13.49337 h 44.77345 v -19.62672 h -70.28819 z"
         style="font-weight:800;font-size:122.667px;line-height:1.1;-inkscape-font-specification:'Trueno, Ultra-Bold';letter-spacing:0px;stroke:none"
         id="path13041" />
      <path
         d="m 416.92791,395.59808 c 0,25.39207 19.25872,44.28278 45.38679,44.28278 13.0027,0 27.1094,-6.50135 36.4321,-16.56004 l -14.72004,-15.70138 c -5.88802,6.01069 -13.86138,9.93603 -20.48539,9.93603 -11.65337,0 -20.48539,-9.56803 -20.48539,-22.20273 0,-12.6347 8.83202,-22.08006 20.48539,-22.08006 7.11468,0 15.08804,4.53868 20.48539,11.40803 L 498.7468,367.262 c -8.70936,-9.32269 -22.57073,-15.21071 -35.57343,-15.21071 -26.61874,0 -46.24546,18.52272 -46.24546,43.54679 z"
         style="font-weight:800;font-size:122.667px;line-height:1.1;-inkscape-font-specification:'Trueno, Ultra-Bold';letter-spacing:0px;stroke:none"
         id="path13043" />
      <path
         d="m 500.21892,395.72074 c 0,25.39207 19.87206,44.16012 46.8588,44.16012 26.98674,0 46.85879,-18.89071 46.85879,-44.16012 0,-25.14673 -19.87205,-43.66945 -46.85879,-43.66945 -26.98674,0 -46.8588,18.40005 -46.8588,43.66945 z m 26.12807,0.12267 c 0,-13.0027 9.6907,-22.44806 21.09873,-22.44806 11.28536,0 20.36272,9.44536 20.36272,22.44806 0,13.0027 -9.07736,22.6934 -20.36272,22.6934 -11.28537,0 -21.09873,-9.6907 -21.09873,-22.6934 z"
         style="font-weight:800;font-size:122.667px;line-height:1.1;-inkscape-font-specification:'Trueno, Ultra-Bold';letter-spacing:0px;stroke:none"
         id="path13045" />
      <path
         d="m 603.50454,438.77686 h 22.44806 v -50.9068 l 17.29605,42.44278 h 16.68271 l 17.29605,-42.44278 0.12266,50.9068 h 22.3254 v -85.98957 h -27.35474 l -20.73073,47.5948 -20.73072,-47.5948 h -27.35474 z"
         style="font-weight:800;font-size:122.667px;line-height:1.1;-inkscape-font-specification:'Trueno, Ultra-Bold';letter-spacing:0px;stroke:none"
         id="path13047" />
      <path
         d="m 208.08732,524.5211 c 0,24.28806 19.62672,43.54678 44.40545,43.54678 11.8987,0 23.4294,-5.27468 31.89342,-13.24804 l -6.01068,-6.74668 c -6.74668,6.37868 -15.94671,10.30403 -25.39207,10.30403 -19.38138,0 -34.96009,-15.08804 -34.96009,-33.85609 0,-18.89072 15.57871,-33.8561 34.96009,-33.8561 9.44536,0 18.76805,4.04801 25.39207,10.7947 l 5.88802,-7.48269 c -8.21869,-7.72802 -19.62672,-12.51203 -31.40276,-12.51203 -24.9014,0 -44.77345,19.01338 -44.77345,43.05612 z"
         style="font-weight:300;font-size:122.667px;line-height:1;-inkscape-font-specification:'Trueno, Light';letter-spacing:0px;stroke:none"
         id="path13049" />
      <path
         d="m 302.05034,567.57721 h 9.81336 v -27.1094 h 22.81606 c 1.96267,0 3.92534,-0.12267 5.76535,-0.24534 l 17.78671,27.35474 h 11.1627 l -20.11739,-29.19474 c 12.38937,-4.04801 19.25872,-13.61604 19.25872,-27.84541 0,-18.27739 -12.38936,-28.82675 -33.85609,-28.82675 h -32.62942 z m 9.81336,-36.55476 v -39.86678 h 22.81606 c 15.57871,0 24.41073,6.62402 24.41073,19.62672 0,13.3707 -8.83202,20.24006 -24.41073,20.24006 z"
         style="font-weight:300;font-size:122.667px;line-height:1;-inkscape-font-specification:'Trueno, Light';letter-spacing:0px;stroke:none"
         id="path13051" />
      <path
         d="m 378.22648,567.57721 h 10.4267 l 9.56802,-21.71206 H 445.08 l 9.56802,21.71206 h 10.67203 l -38.39477,-85.8669 h -10.18136 z m 24.1654,-31.15742 19.13605,-43.54678 19.38139,43.54678 z"
         style="font-weight:300;font-size:122.667px;line-height:1;-inkscape-font-specification:'Trueno, Light';letter-spacing:0px;stroke:none"
         id="path13053" />
      <path
         d="m 478.81347,567.57721 h 9.81336 v -36.8001 h 40.11211 v -9.44536 h -40.11211 v -30.17608 h 44.77345 v -9.44536 h -54.58681 z"
         style="font-weight:300;font-size:122.667px;line-height:1;-inkscape-font-specification:'Trueno, Light';letter-spacing:0px;stroke:none"
         id="path13055" />
      <path
         d="m 536.2216,491.15567 h 27.96807 v 76.42154 h 9.81336 v -76.42154 h 28.09075 v -9.44536 H 536.2216 Z"
         style="font-weight:300;font-size:122.667px;line-height:1;-inkscape-font-specification:'Trueno, Light';letter-spacing:0px;stroke:none"
         id="path13057" />
    </g>
  </g>
</svg>
